<?xml version="1.0" encoding="utf-8"?>
<!-- Generator: Adobe Illustrator 26.5.0, SVG Export Plug-In . SVG Version: 6.00 Build 0)  -->
<svg version="1.1" id="Layer_1" xmlns="http://www.w3.org/2000/svg" xmlns:xlink="http://www.w3.org/1999/xlink" x="0px" y="0px"
	 viewBox="0 0 634.1 115" style="enable-background:new 0 0 634.1 115;" xml:space="preserve">
<style type="text/css">
	.st0{fill:#FFFFFF;}
	.st1{fill:#ED1B2F;}
	.st2{fill:#231F20;}
</style>
<path class="st1" d="M52.8,26c-4.6,0.2-10,0.8-15.7,2.2c-1,0.3-2,0.5-3,0.8c-10.3,3-16.8,7.4-19.8,16.5c-2.5,7.6-0.5,15.8,4.5,21.6
	c0.5-4.2,1.2-7.8,2.2-11.6c-2.5-3.7-3.9-8.2-3.9-12.8C33,36.9,51,38.8,65.5,48c2,1.2,4.5-0.3,4.3-2.6c-0.1-1.7-0.3-3.4-0.6-5.1
	c-0.7-4.2-2-8.3-3.7-12.2c-0.4-0.9-1.2-1.5-2.2-1.6C60.4,26.1,56.8,25.9,52.8,26z M24.4,54.4c-1.3,4.5-2.3,9.7-2.8,15.6
	c-0.1,1.1-0.1,2.1-0.2,3.1C21.1,83.9,23.3,91.4,31,97c6.5,4.7,14.9,5.4,21.9,2.4c-3.8-1.7-7-3.5-10.4-5.7c-4.3,1.3-9,1.2-13.4-0.3
	C28.6,76.6,36,60,49.2,49.1c1.8-1.5,1.1-4.3-1.1-4.9c-1.7-0.4-3.4-0.7-5.1-1c-4.2-0.6-8.5-0.7-12.8-0.2c-1,0.1-1.8,0.7-2.2,1.6
	C26.8,47.2,25.6,50.5,24.4,54.4 M42.7,90.1c3.9,2.6,8.5,5.2,14,7.5c1,0.4,1.9,0.8,2.9,1.1c10.1,3.7,17.9,3.9,25.7-1.7
	c6.5-4.7,9.7-12.5,9-20.1c-2.8,3.1-5.5,5.6-8.6,8.1c-0.1,4.5-1.6,8.9-4.4,12.7c-16.2-4.7-29.7-16.9-36-32.8c-0.9-2.1-3.8-2.4-5-0.4
	c-0.9,1.5-1.7,3-2.5,4.5c-1.9,3.9-3.3,7.9-4.2,12.1c-0.2,1,0.1,2,0.8,2.6C36.5,85.6,39.3,87.9,42.7,90.1 M82.3,83.8
	c3.7-2.9,7.6-6.5,11.4-11c0.7-0.8,1.3-1.6,1.9-2.4c6.6-8.5,9.3-15.9,6.3-24.9c-2.5-7.6-8.9-13.1-16.3-14.8c2.1,3.7,3.6,7,5,10.7
	c4.2,1.5,8,4.3,10.7,8.1c-9.5,13.9-25.2,23-42.3,24.1c-2.3,0.1-3.5,2.8-2,4.6c1.1,1.3,2.3,2.6,3.5,3.8c3.1,3,6.5,5.6,10.2,7.7
	c0.8,0.5,1.9,0.5,2.7,0C76.1,88.3,79.1,86.3,82.3,83.8 M91.4,54.3c0.2,1-0.1,2-0.9,2.6c-3.2,2.8-6.7,5.3-10.5,7.3
	c-1.5,0.8-3.1,1.5-4.7,2.2c-2.1,0.9-4.4-1.1-3.8-3.3c4.2-16.6,0.5-34.4-9.8-47.7c-4.4,1.4-8.2,4.1-11,7.7c-4,0.2-7.6,0.6-11.8,1.5
	C43,18,50.1,13.6,58.1,13.6c9.5,0,15.7,4.8,21.8,13.7c0.6,0.8,1.1,1.7,1.7,2.6c3.1,5,5.4,9.9,6.9,14.3C89.9,48,90.8,51.5,91.4,54.3"
	/>
<path class="st2" d="M148.5,42.1h-15.6l7.1-17.7c0.4-1,0.6-1.3,0.7-1.4c0.1,0.1,0.3,0.5,0.7,1.5L148.5,42.1z M140.7,13.6
	c-4.3,0-6.3,1.4-8.1,5.5L115.1,61h10.4l4.6-11.5h21.1l4.7,11.5h10.4l-17.6-41.8C147.1,15.1,144.9,13.6,140.7,13.6"/>
<path class="st2" d="M200.7,32.8h-22.4V14.2h-9.9V61h9.9v-20h22.4v20h9.9V14.2h-9.9V32.8z"/>
<path class="st2" d="M246,42.1h-15.6l7.1-17.7c0.4-1,0.6-1.3,0.7-1.4c0.1,0.1,0.3,0.5,0.7,1.5L246,42.1z M238.2,13.6
	c-4.3,0-6.3,1.4-8.1,5.5L212.6,61H223l4.6-11.5h21.1l4.7,11.5h10.4l-17.6-41.8C244.5,15.1,242.4,13.6,238.2,13.6"/>
<path class="st2" d="M315.9,13.6c-3.3,0-6.6,0.8-8.6,6.3l-11.8,30.4c-0.2,0.4-0.5,1-0.6,1.2c-0.2-0.2-0.4-0.8-0.6-1.2l-11.8-30.4
	c-1.2-3.2-2.9-6.3-8.6-6.3c-5.1,0-8,2.4-8,6.6V61h9.9l-0.2-36.1c0-0.3,0-0.6,0.1-0.7c0.1,0.2,0.3,0.5,0.5,1l11.6,30.4
	c0.9,2.5,2.1,5.9,7.1,5.9c4.5,0,5.7-2.2,7.1-5.9l11.7-30.4c0.2-0.5,0.4-0.9,0.6-1c0,0.1,0.1,0.3,0.1,0.7L314,61h9.9V20.3
	C323.9,16.1,320.9,13.6,315.9,13.6z"/>
<path class="st2" d="M353.9,48.8c-1.4-2.2-2-5.7-2-10.7c0-5.6,0.8-9.5,2.4-11.9c2.5-3.7,6.7-4,11.5-4h14.9v-8.1h-18.9
	c-6.9,0-12.1,2-15.4,6c-4.1,4.8-4.6,12.2-4.6,18.1c0,5.9,0.6,12.5,4.8,17.2c4.4,5,10.7,5.5,15,5.5h19.8v-8.1h-16.1
	C360.1,52.9,356.1,52.2,353.9,48.8z"/>
<path class="st2" d="M417.5,42.1h-15.6l7.1-17.7c0.4-1,0.6-1.3,0.7-1.4c0.1,0.1,0.3,0.5,0.7,1.5L417.5,42.1z M409.7,13.6
	c-4.3,0-6.3,1.4-8.1,5.5L384.1,61h10.4l4.6-11.5h21.1l4.7,11.5h10.4l-17.6-41.8C416,15.1,413.9,13.6,409.7,13.6z"/>
<path class="st2" d="M469.4,29.4c0,1.1,0,4.3-1.3,5.8l0,0c-1.3,1.5-3.1,1.5-4.9,1.5h-15.9V24.4c0-0.7,0-1.3,0.4-1.7
	c0.4-0.4,0.8-0.4,1.3-0.4l14.1,0c1.8,0,3.7,0.2,4.9,1.4C469.2,24.9,469.4,27.3,469.4,29.4z M466.5,14.2h-21.8
	c-2.5,0-4.3,0.6-5.6,1.9c-1.7,1.7-1.7,3.8-1.7,5.5V61h9.9V44.8h20.7c2.8,0,5.4-0.9,7.4-2.4c2.8-2.3,4.2-6.6,4.2-13
	c0-4.2-0.4-9.4-3.6-12.4C472.9,14.2,468.9,14.2,466.5,14.2"/>
<path class="st2" d="M482.5,61h9.9V14.2h-9.9V61z"/>
<path class="st2" d="M541.5,14.2h-45.5v8.1h17.8V61h9.9V22.3h17.8V14.2z"/>
<path class="st2" d="M558.1,22.9c0.1,0.1,0.3,0.5,0.7,1.5l7.1,17.7h-15.6l7.1-17.7C557.8,23.4,558,23.1,558.1,22.9z M558.1,13.6
	c-4.3,0-6.3,1.4-8.1,5.5L532.5,61h10.4l4.6-11.5h21.1l4.7,11.5h10.4l-17.6-41.8C564.5,15.1,562.3,13.6,558.1,13.6z"/>
<path class="st2" d="M597.8,52.9c-1.2,0-1.6-0.3-1.7-0.4c-0.4-0.3-0.4-0.7-0.4-1.2l0-37.1h-9.9v41.2c0,2.4,1.2,3.7,1.9,4.3
	c1.5,1.2,3.7,1.3,4.6,1.3h31.1v-8.1H597.8z"/>
<path class="st2" d="M131.1,93l-5-11.2l-5,11.2H131.1z M125.1,79h2.3l10,22h-2.7l-2.6-5.8h-11.9l-2.6,5.8h-2.5L125.1,79z"/>
<path class="st2" d="M150.3,97.8l1.5-1.8c2.3,2.1,4.5,3.1,7.5,3.1c2.9,0,4.9-1.6,4.9-3.7v-0.1c0-2-1.1-3.2-5.7-4.2
	c-5-1.1-7.3-2.7-7.3-6.3v-0.1c0-3.4,3-6,7.2-6c3.2,0,5.5,0.9,7.7,2.7l-1.4,1.9c-2-1.7-4.1-2.4-6.3-2.4c-2.8,0-4.7,1.6-4.7,3.5v0.1
	c0,2.1,1.1,3.2,5.9,4.2c4.9,1.1,7.1,2.8,7.1,6.2v0.1c0,3.7-3.1,6.2-7.5,6.2C155.8,101.3,152.9,100.1,150.3,97.8z"/>
<path class="st2" d="M180.5,97.8l1.5-1.8c2.3,2.1,4.5,3.1,7.5,3.1c2.9,0,4.9-1.6,4.9-3.7v-0.1c0-2-1.1-3.2-5.7-4.2
	c-5-1.1-7.3-2.7-7.3-6.3v-0.1c0-3.4,3-6,7.2-6c3.2,0,5.5,0.9,7.7,2.7l-1.4,1.9c-2-1.7-4.1-2.4-6.3-2.4c-2.8,0-4.7,1.6-4.7,3.5v0.1
	c0,2.1,1.1,3.2,5.9,4.2c4.9,1.1,7.1,2.8,7.1,6.2v0.1c0,3.7-3.1,6.2-7.5,6.2C186,101.3,183.2,100.1,180.5,97.8z"/>
<path class="st2" d="M212.5,79.1h15.8v2.2H215v7.5h11.9v2.2H215v7.7h13.5v2.2h-16V79.1z"/>
<path class="st2" d="M249.8,81.4h-7.3v-2.3h17.2v2.3h-7.3V101h-2.5V81.4z"/>
<path class="st2" d="M294.7,79.1h2.5l8,11.9l8-11.9h2.5V101h-2.5V83.3l-8,11.7H305l-8-11.7V101h-2.4V79.1z"/>
<path class="st2" d="M346.5,93l-5-11.2l-5,11.2H346.5z M340.4,79h2.3l10,22H350l-2.6-5.8h-11.9L333,101h-2.5L340.4,79z"/>
<path class="st2" d="M367.5,79.1h2.3l13.8,17.5V79.1h2.4V101h-2L370,83.1V101h-2.4V79.1z"/>
<path class="st2" d="M417,93l-5-11.2L407,93H417z M410.9,79h2.3l10,22h-2.7l-2.6-5.8H406l-2.6,5.8h-2.5L410.9,79z"/>
<path class="st2" d="M435.7,90.1L435.7,90.1c0-6.1,4.4-11.4,11-11.4c3.7,0,6,1.1,8.2,2.9l-1.6,1.9c-1.7-1.5-3.6-2.5-6.7-2.5
	c-4.8,0-8.3,4.1-8.3,9v0.1c0,5.2,3.3,9.1,8.7,9.1c2.5,0,4.8-1,6.3-2.2v-5.4h-6.7v-2.2h9V98c-2,1.8-5.1,3.3-8.8,3.3
	C440,101.4,435.7,96.4,435.7,90.1z"/>
<path class="st2" d="M471.7,79.1h15.8v2.2h-13.3v7.5h11.9v2.2h-11.9v7.7h13.5v2.2h-16V79.1z"/>
<path class="st2" d="M503.2,79.1h2.5l8,11.9l8-11.9h2.5V101h-2.5V83.3l-8,11.7h-0.1l-8-11.7V101h-2.4V79.1z"/>
<path class="st2" d="M540.9,79.1h15.8v2.2h-13.3v7.5h11.9v2.2h-11.9v7.7h13.5v2.2h-16V79.1z"/>
<path class="st2" d="M572.4,79.1h2.3l13.8,17.5V79.1h2.4V101h-2l-14.1-17.9V101h-2.4V79.1z"/>
<path class="st2" d="M613.4,81.4H606v-2.3h17.2v2.3h-7.3V101h-2.5V81.4z"/>
</svg>
